PathFileType  4	(X/Y/Z) c:\opencap-core-main\examples\Data\81a20db3-8b24-463d-8a5a-854c37a24678\MarkerData\PreAugmentation
DataRate	CameraRate	NumFrames	NumMarkers	Units	OrigDataRate	OrigDataStartFrame	OrigNumFrames
60.0	60.0	18	20	m	60.0	371	592
Frame#	Time	Neck			RShoulder			RElbow			RWrist			LShoulder			LElbow			LWrist			midHip			RHip			RKnee			RAnkle			LHip			LKnee			LAnkle			LBigToe			LSmallToe			LHeel			RBigToe			RSmallToe			RHeel			
		X1	Y1	Z1	X2	Y2	Z2	X3	Y3	Z3	X4	Y4	Z4	X5	Y5	Z5	X6	Y6	Z6	X7	Y7	Z7	X8	Y8	Z8	X9	Y9	Z9	X10	Y10	Z10	X11	Y11	Z11	X12	Y12	Z12	X13	Y13	Z13	X14	Y14	Z14	X15	Y15	Z15	X16	Y16	Z16	X17	Y17	Z17	X18	Y18	Z18	X19	Y19	Z19	X20	Y20	Z20	

371	6.1666667	0.2908800	0.8613500	-0.1008200	0.2888700	0.8587000	0.0606100	0.1898500	0.5701200	0.1264300	0.2911200	0.3781100	0.1441900	0.2929100	0.8666300	-0.2630100	0.1837000	0.5723800	-0.3185100	0.2964000	0.3747800	-0.2452400	-0.0901800	0.6648900	-0.0857400	-0.0739200	0.6612500	0.0480700	0.0253600	0.2983400	-0.0013100	-0.0122300	-0.1342200	0.0202400	-0.0989300	0.6769600	-0.2296500	0.0078500	0.3009700	-0.2170000	-0.0562300	-0.1378400	-0.2341800	0.1276900	-0.2132600	-0.2509300	0.0914100	-0.2061700	-0.3266800	-0.0919400	-0.1956200	-0.2391000	0.1500300	-0.1945200	0.0433200	0.1192500	-0.1902100	0.0955100	-0.0592100	-0.1923400	0.0334500
372	6.1833333	0.2921700	0.8510700	-0.0953100	0.2920400	0.8519800	0.0635800	0.1932400	0.5603000	0.1244200	0.2912500	0.3628400	0.1501500	0.2970100	0.8545100	-0.2634000	0.1923700	0.5597000	-0.3203900	0.2987300	0.3676900	-0.2491600	-0.0948700	0.6637100	-0.0891200	-0.0779100	0.6626800	0.0486400	0.0278400	0.2980300	0.0018300	-0.0114200	-0.1339100	0.0199900	-0.1008300	0.6705200	-0.2282400	0.0082000	0.2983100	-0.2184700	-0.0650200	-0.1369500	-0.2352700	0.1177600	-0.2179900	-0.2400300	0.0804300	-0.2119900	-0.3146200	-0.0945700	-0.1944200	-0.2380600	0.1469500	-0.1970300	0.0423400	0.1163300	-0.1909500	0.0959900	-0.0572100	-0.1915400	0.0310800
373	6.2000000	0.2925600	0.8454100	-0.0954900	0.2952600	0.8433500	0.0615000	0.1958400	0.5536900	0.1203700	0.2923100	0.3445800	0.1532700	0.2992000	0.8464200	-0.2660600	0.2001900	0.5495200	-0.3211500	0.3021800	0.3548600	-0.2571800	-0.0966300	0.6646900	-0.0930800	-0.0795900	0.6640600	0.0416700	0.0310200	0.2954400	0.0068600	-0.0115000	-0.1371300	0.0201300	-0.1005600	0.6716300	-0.2308000	0.0054000	0.2903100	-0.2079700	-0.0676800	-0.1393200	-0.2360800	0.1041400	-0.2245000	-0.2254700	0.0648400	-0.2204000	-0.2981800	-0.0969900	-0.1908400	-0.2370300	0.1478400	-0.1989100	0.0421500	0.1180100	-0.1904500	0.0976800	-0.0573300	-0.1917200	0.0312200
374	6.2166667	0.2940500	0.8414700	-0.0986600	0.2968300	0.8356000	0.0540500	0.1971900	0.5502500	0.1174500	0.2924700	0.3276600	0.1510500	0.2988700	0.8432600	-0.2659300	0.2032100	0.5431000	-0.3212200	0.3026400	0.3382200	-0.2628800	-0.0982900	0.6644200	-0.0915300	-0.0833800	0.6656900	0.0401500	0.0303700	0.2930500	0.0060200	-0.0132100	-0.1409700	0.0162900	-0.1004300	0.6769800	-0.2324400	0.0052500	0.2886400	-0.1987200	-0.0700600	-0.1381100	-0.2362900	0.0912600	-0.2318100	-0.2123300	0.0500600	-0.2289900	-0.2830900	-0.0987500	-0.1907300	-0.2346200	0.1499200	-0.1990800	0.0431300	0.1198500	-0.1900500	0.0991800	-0.0578400	-0.1915700	0.0313300
375	6.2333333	0.2953200	0.8398000	-0.1003000	0.2992400	0.8307600	0.0435100	0.1975200	0.5472800	0.1176000	0.2920200	0.3155100	0.1472400	0.2989300	0.8426700	-0.2603200	0.2019400	0.5409800	-0.3211400	0.2997400	0.3226300	-0.2643300	-0.1012600	0.6638300	-0.0924800	-0.0898600	0.6662900	0.0432700	0.0287600	0.2949100	-0.0009800	-0.0164400	-0.1430900	0.0110100	-0.0998800	0.6795800	-0.2339300	0.0215800	0.2956600	-0.2123300	-0.0705300	-0.1362300	-0.2378200	0.0823800	-0.2390400	-0.2052900	0.0393600	-0.2350200	-0.2732600	-0.1024500	-0.1946700	-0.2343600	0.1503000	-0.1959500	0.0460100	0.1181400	-0.1902600	0.0973200	-0.0584300	-0.1897000	0.0298800
376	6.2500000	0.2943700	0.8367000	-0.0989900	0.3040700	0.8244700	0.0352800	0.1975300	0.5417000	0.1205900	0.2913300	0.3089900	0.1463500	0.2989200	0.8426000	-0.2532800	0.2009700	0.5406000	-0.3222100	0.2976600	0.3119500	-0.2622200	-0.1029800	0.6655100	-0.0998300	-0.0941800	0.6675700	0.0408300	0.0332500	0.2990300	-0.0026700	-0.0186300	-0.1442700	0.0086100	-0.0993700	0.6821900	-0.2363700	0.0416000	0.3054600	-0.2337300	-0.0774000	-0.1316100	-0.2382400	0.0839100	-0.2500500	-0.1987700	0.0352600	-0.2406300	-0.2656900	-0.1054200	-0.1985800	-0.2336800	0.1497600	-0.1916700	0.0492600	0.1162400	-0.1893800	0.0945300	-0.0589400	-0.1882400	0.0286500
377	6.2666667	0.2927400	0.8264900	-0.0988400	0.3086400	0.8108900	0.0343000	0.1978200	0.5340000	0.1231800	0.2912800	0.3038300	0.1477300	0.2970000	0.8356300	-0.2521200	0.2047900	0.5395400	-0.3232200	0.2988100	0.3056200	-0.2575500	-0.1030800	0.6672300	-0.1052800	-0.0946400	0.6680500	0.0362700	0.0414100	0.2997700	0.0049400	-0.0188000	-0.1459300	0.0097200	-0.0987300	0.6796600	-0.2384900	0.0514800	0.3043500	-0.2405400	-0.0785900	-0.1399800	-0.2276900	0.0815600	-0.2588000	-0.1895300	0.0335600	-0.2484300	-0.2549200	-0.1058500	-0.1986800	-0.2289000	0.1499600	-0.1899700	0.0508200	0.1183600	-0.1876600	0.0951400	-0.0589100	-0.1895500	0.0293500
378	6.2833333	0.2935200	0.8109400	-0.1007100	0.3126400	0.7942500	0.0387400	0.1992000	0.5271300	0.1210700	0.2927400	0.2969000	0.1477700	0.2947200	0.8225900	-0.2569100	0.2121400	0.5360700	-0.3211800	0.3022000	0.2997600	-0.2539200	-0.1029000	0.6650400	-0.1054400	-0.0939500	0.6625500	0.0371100	0.0453800	0.2957600	0.0110800	-0.0164100	-0.1469500	0.0132900	-0.1001600	0.6762400	-0.2421800	0.0554200	0.3007400	-0.2432500	-0.0789200	-0.1506700	-0.2164600	0.0783500	-0.2624600	-0.1829100	0.0312200	-0.2546000	-0.2456400	-0.1026400	-0.1989100	-0.2243000	0.1520500	-0.1894300	0.0528500	0.1218800	-0.1875800	0.0968500	-0.0586200	-0.1911100	0.0309100
379	6.3000000	0.2968100	0.7966200	-0.0995100	0.3168600	0.7851400	0.0459300	0.2022000	0.5211700	0.1173700	0.2953500	0.2870500	0.1477700	0.2968300	0.8108700	-0.2619900	0.2163000	0.5291700	-0.3180800	0.3050900	0.2924500	-0.2544600	-0.1028100	0.6612000	-0.1045400	-0.0961700	0.6570100	0.0419300	0.0453600	0.2916800	0.0110300	-0.0127900	-0.1441000	0.0191100	-0.1028400	0.6736000	-0.2478900	0.0592800	0.3042900	-0.2521000	-0.0724900	-0.1539100	-0.2188100	0.0796200	-0.2585300	-0.1875200	0.0354800	-0.2562500	-0.2455200	-0.1001000	-0.1980400	-0.2259000	0.1545100	-0.1873200	0.0565500	0.1204000	-0.1898600	0.0939700	-0.0582700	-0.1895000	0.0326600
380	6.3166667	0.2989300	0.7861800	-0.0960200	0.3181600	0.7850400	0.0576400	0.2054400	0.5168000	0.1212500	0.2973200	0.2745100	0.1528200	0.3027600	0.8015000	-0.2646500	0.2167700	0.5189000	-0.3187600	0.3063400	0.2830400	-0.2585000	-0.1031300	0.6582400	-0.1035200	-0.1017100	0.6565200	0.0450300	0.0467100	0.2923100	0.0126700	-0.0112500	-0.1394300	0.0244200	-0.1044900	0.6695700	-0.2506700	0.0635500	0.3086500	-0.2605000	-0.0630200	-0.1503400	-0.2292300	0.0884600	-0.2535000	-0.1967400	0.0398500	-0.2512800	-0.2525100	-0.0983100	-0.1949300	-0.2305600	0.1528600	-0.1863300	0.0560200	0.1135600	-0.1940600	0.0845500	-0.0581900	-0.1859400	0.0345900
381	6.3333333	0.2984700	0.7793800	-0.0971200	0.3150200	0.7906800	0.0670300	0.2081200	0.5117500	0.1307100	0.2977300	0.2610000	0.1582900	0.3068900	0.7931200	-0.2650500	0.2199400	0.5074300	-0.3236600	0.3093200	0.2715200	-0.2674100	-0.1052900	0.6568700	-0.1002400	-0.1072600	0.6593100	0.0438000	0.0499200	0.2960600	0.0184700	-0.0136100	-0.1383600	0.0242300	-0.1050500	0.6638700	-0.2487400	0.0656300	0.3130000	-0.2644000	-0.0575000	-0.1469300	-0.2342700	0.0917500	-0.2505900	-0.1981900	0.0439100	-0.2508900	-0.2550600	-0.0948500	-0.1925100	-0.2321300	0.1428200	-0.1901800	0.0447200	0.1046000	-0.1988100	0.0702600	-0.0581500	-0.1840200	0.0358200
382	6.3500000	0.2977700	0.7770800	-0.1015300	0.3114700	0.7971700	0.0656300	0.2100600	0.5028400	0.1343200	0.3000100	0.2460700	0.1543800	0.3072700	0.7892500	-0.2654200	0.2265100	0.4995200	-0.3291300	0.3158800	0.2606800	-0.2804100	-0.1089500	0.6569100	-0.0953000	-0.1094300	0.6594200	0.0409500	0.0517800	0.2983500	0.0223300	-0.0173000	-0.1398600	0.0206300	-0.1050900	0.6583400	-0.2467400	0.0662700	0.3162100	-0.2677600	-0.0561400	-0.1418700	-0.2352000	0.0891500	-0.2509200	-0.1939100	0.0424800	-0.2532600	-0.2518500	-0.0942800	-0.1874100	-0.2313400	0.1301300	-0.1982100	0.0279900	0.0960500	-0.2033300	0.0575300	-0.0585500	-0.1824200	0.0366600
383	6.3666667	0.2970400	0.7757900	-0.1010600	0.3091100	0.7944600	0.0611400	0.2151900	0.4888800	0.1328500	0.3033300	0.2352100	0.1451600	0.3053100	0.7908000	-0.2691800	0.2317100	0.4942500	-0.3306100	0.3204400	0.2538900	-0.2878600	-0.1105200	0.6566800	-0.0932000	-0.1093400	0.6572400	0.0394200	0.0519300	0.2979800	0.0223200	-0.0177100	-0.1389200	0.0215400	-0.1044300	0.6559100	-0.2480900	0.0672200	0.3152800	-0.2709700	-0.0543100	-0.1362300	-0.2389800	0.0905400	-0.2525000	-0.1953100	0.0425300	-0.2547300	-0.2505800	-0.0953300	-0.1807100	-0.2314300	0.1234100	-0.2028200	0.0195000	0.0891000	-0.2059500	0.0540000	-0.0581000	-0.1792900	0.0384700
384	6.3833333	0.2962900	0.7709100	-0.0973000	0.3068900	0.7776900	0.0629900	0.2231900	0.4744600	0.1344300	0.3070900	0.2273500	0.1410200	0.3024900	0.7921700	-0.2747400	0.2340200	0.4848100	-0.3261300	0.3208700	0.2503200	-0.2869800	-0.1081700	0.6549900	-0.0960200	-0.1086400	0.6557900	0.0396400	0.0516500	0.2974400	0.0217200	-0.0143700	-0.1363000	0.0265100	-0.1040100	0.6577000	-0.2504600	0.0667100	0.3095700	-0.2658400	-0.0509600	-0.1364500	-0.2443500	0.0960500	-0.2510400	-0.2036300	0.0466300	-0.2513900	-0.2563200	-0.0939800	-0.1774400	-0.2334000	0.1228400	-0.2047700	0.0173700	0.0840000	-0.2070500	0.0556300	-0.0563700	-0.1759300	0.0419300
385	6.4000000	0.2976100	0.7644700	-0.0982600	0.3058200	0.7537400	0.0694300	0.2282000	0.4606200	0.1381600	0.3098600	0.2200500	0.1386400	0.3019200	0.7900000	-0.2777200	0.2374500	0.4718800	-0.3193300	0.3231300	0.2457600	-0.2869100	-0.1060500	0.6539600	-0.0997700	-0.1074700	0.6545000	0.0406900	0.0515100	0.2974900	0.0218800	-0.0123200	-0.1346900	0.0294500	-0.1050900	0.6633200	-0.2514600	0.0653700	0.2996000	-0.2530400	-0.0488600	-0.1390900	-0.2461000	0.0988100	-0.2464900	-0.2102500	0.0513400	-0.2448900	-0.2653400	-0.0911600	-0.1754600	-0.2366700	0.1195200	-0.2077700	0.0085900	0.0809000	-0.2083100	0.0523100	-0.0553900	-0.1747400	0.0463200
386	6.4166667	0.2992200	0.7598300	-0.1016000	0.3056300	0.7346800	0.0755500	0.2313200	0.4467200	0.1396500	0.3148300	0.2133900	0.1324900	0.3053800	0.7853900	-0.2791200	0.2427600	0.4640600	-0.3150500	0.3290300	0.2382200	-0.2907200	-0.1095100	0.6566900	-0.1023500	-0.1107600	0.6571000	0.0377200	0.0515800	0.2975500	0.0219800	-0.0120700	-0.1350100	0.0292500	-0.1055000	0.6700700	-0.2535200	0.0638300	0.2924100	-0.2442200	-0.0472300	-0.1381900	-0.2428300	0.0983900	-0.2432600	-0.2095900	0.0537100	-0.2423700	-0.2691200	-0.0855500	-0.1724500	-0.2412100	0.1168100	-0.2108400	-0.0025900	0.0811200	-0.2088400	0.0462400	-0.0549400	-0.1749200	0.0487100
387	6.4333333	0.2974900	0.7557500	-0.0986800	0.3042100	0.7275500	0.0787500	0.2377400	0.4345400	0.1390000	0.3241400	0.2094600	0.1259400	0.3082500	0.7769000	-0.2808000	0.2459000	0.4610900	-0.3145200	0.3341700	0.2294800	-0.2931500	-0.1162900	0.6602000	-0.1062400	-0.1200700	0.6599400	0.0272700	0.0516000	0.2980200	0.0217600	-0.0125100	-0.1351000	0.0288400	-0.1031800	0.6730700	-0.2577400	0.0636800	0.2885600	-0.2417600	-0.0445100	-0.1356300	-0.2381500	0.0964200	-0.2417500	-0.2046200	0.0539200	-0.2453600	-0.2664400	-0.0788100	-0.1681500	-0.2475000	0.1198700	-0.2111900	-0.0049500	0.0831400	-0.2083600	0.0442800	-0.0540400	-0.1734500	0.0484000
388	6.4500000	0.2948600	0.7509000	-0.0918300	0.3021800	0.7295200	0.0815500	0.2453700	0.4249700	0.1383000	0.3362600	0.2052800	0.1225700	0.3061200	0.7645900	-0.2802500	0.2463900	0.4565800	-0.3164100	0.3374900	0.2203400	-0.2926300	-0.1200900	0.6603300	-0.1103600	-0.1280600	0.6602000	0.0171500	0.0519700	0.2975200	0.0220600	-0.0125600	-0.1349000	0.0289000	-0.1009200	0.6736700	-0.2609700	0.0656500	0.2874700	-0.2387100	-0.0426000	-0.1347200	-0.2362100	0.0966500	-0.2400800	-0.2036100	0.0548100	-0.2460700	-0.2664100	-0.0735700	-0.1658900	-0.2529100	0.1247300	-0.2101400	-0.0002800	0.0856100	-0.2082100	0.0458300	-0.0529100	-0.1717800	0.0481000
